<mxfile host="app.diagrams.net" modified="2021-11-13T03:58:28.185Z" agent="5.0 (Windows NT 10.0; Win64; x64) AppleWebKit/537.36 (KHTML, like Gecko) Chrome/95.0.4638.69 Safari/537.36" etag="cCxcTACeVBULlMOy1z8f" version="15.7.3" type="github">
  <diagram id="92zfsirrIOi4vIKgqZQA" name="Page-1">
    <mxGraphModel dx="868" dy="520" grid="1" gridSize="10" guides="1" tooltips="1" connect="1" arrows="1" fold="1" page="1" pageScale="1" pageWidth="827" pageHeight="1169" math="0" shadow="0">
      <root>
        <mxCell id="0" />
        <mxCell id="1" parent="0" />
        <mxCell id="w1eACj4yXZsooirm8AMX-1" value="REST API" style="text;strokeColor=none;fillColor=none;html=1;fontSize=24;fontStyle=1;verticalAlign=middle;align=center;" vertex="1" parent="1">
          <mxGeometry x="364" y="40" width="100" height="40" as="geometry" />
        </mxCell>
        <mxCell id="w1eACj4yXZsooirm8AMX-2" value="&lt;h1&gt;Client&lt;/h1&gt;" style="rounded=1;whiteSpace=wrap;html=1;fillColor=#dae8fc;strokeColor=#6c8ebf;" vertex="1" parent="1">
          <mxGeometry x="160" y="100" width="120" height="60" as="geometry" />
        </mxCell>
        <mxCell id="w1eACj4yXZsooirm8AMX-3" value="&lt;h1&gt;Server&lt;/h1&gt;" style="rounded=1;whiteSpace=wrap;html=1;fillColor=#fff2cc;strokeColor=#d6b656;" vertex="1" parent="1">
          <mxGeometry x="560" y="100" width="120" height="60" as="geometry" />
        </mxCell>
        <mxCell id="w1eACj4yXZsooirm8AMX-4" value="" style="endArrow=classic;html=1;rounded=0;exitX=0.5;exitY=1;exitDx=0;exitDy=0;strokeWidth=3;" edge="1" parent="1" source="w1eACj4yXZsooirm8AMX-2">
          <mxGeometry width="50" height="50" relative="1" as="geometry">
            <mxPoint x="219" y="330" as="sourcePoint" />
            <mxPoint x="219" y="2590" as="targetPoint" />
          </mxGeometry>
        </mxCell>
        <mxCell id="w1eACj4yXZsooirm8AMX-5" value="" style="endArrow=classic;html=1;rounded=0;exitX=0.5;exitY=1;exitDx=0;exitDy=0;strokeWidth=3;" edge="1" parent="1" source="w1eACj4yXZsooirm8AMX-3">
          <mxGeometry width="50" height="50" relative="1" as="geometry">
            <mxPoint x="619.5" y="450" as="sourcePoint" />
            <mxPoint x="619" y="2590" as="targetPoint" />
          </mxGeometry>
        </mxCell>
        <mxCell id="w1eACj4yXZsooirm8AMX-12" value="" style="endArrow=openThin;html=1;rounded=0;strokeWidth=3;endFill=0;" edge="1" parent="1">
          <mxGeometry width="50" height="50" relative="1" as="geometry">
            <mxPoint x="320" y="350" as="sourcePoint" />
            <mxPoint x="520" y="350" as="targetPoint" />
          </mxGeometry>
        </mxCell>
        <mxCell id="w1eACj4yXZsooirm8AMX-13" value="" style="endArrow=openThin;html=1;rounded=0;strokeWidth=3;endFill=0;" edge="1" parent="1">
          <mxGeometry width="50" height="50" relative="1" as="geometry">
            <mxPoint x="520" y="470" as="sourcePoint" />
            <mxPoint x="320" y="470" as="targetPoint" />
          </mxGeometry>
        </mxCell>
        <mxCell id="w1eACj4yXZsooirm8AMX-14" value="&lt;div&gt;&lt;span&gt;Token, {Params}&lt;/span&gt;&lt;/div&gt;" style="rounded=1;whiteSpace=wrap;html=1;align=center;" vertex="1" parent="1">
          <mxGeometry x="320" y="280" width="200" height="60" as="geometry" />
        </mxCell>
        <mxCell id="w1eACj4yXZsooirm8AMX-15" value="Response" style="rounded=1;whiteSpace=wrap;html=1;glass=0;" vertex="1" parent="1">
          <mxGeometry x="320" y="400" width="200" height="60" as="geometry" />
        </mxCell>
        <mxCell id="w1eACj4yXZsooirm8AMX-16" value="Change{Params}" style="text;html=1;strokeColor=none;fillColor=none;align=center;verticalAlign=middle;whiteSpace=wrap;rounded=0;fontStyle=1;fontSize=15;rotation=0;" vertex="1" parent="1">
          <mxGeometry x="320" y="200" width="200" height="30" as="geometry" />
        </mxCell>
        <mxCell id="w1eACj4yXZsooirm8AMX-22" value="" style="endArrow=openThin;html=1;rounded=0;strokeWidth=3;endFill=0;" edge="1" parent="1">
          <mxGeometry width="50" height="50" relative="1" as="geometry">
            <mxPoint x="320" y="670" as="sourcePoint" />
            <mxPoint x="520" y="670" as="targetPoint" />
          </mxGeometry>
        </mxCell>
        <mxCell id="w1eACj4yXZsooirm8AMX-23" value="" style="endArrow=openThin;html=1;rounded=0;strokeWidth=3;endFill=0;" edge="1" parent="1">
          <mxGeometry width="50" height="50" relative="1" as="geometry">
            <mxPoint x="520" y="790" as="sourcePoint" />
            <mxPoint x="320" y="790" as="targetPoint" />
          </mxGeometry>
        </mxCell>
        <mxCell id="w1eACj4yXZsooirm8AMX-24" value="&lt;div&gt;&lt;span&gt;Email, Password&lt;/span&gt;&lt;/div&gt;&lt;div&gt;&lt;span&gt;CSRF Token&lt;/span&gt;&lt;/div&gt;" style="rounded=1;whiteSpace=wrap;html=1;align=center;" vertex="1" parent="1">
          <mxGeometry x="320" y="600" width="200" height="60" as="geometry" />
        </mxCell>
        <mxCell id="w1eACj4yXZsooirm8AMX-25" value="Response(Token or error)" style="rounded=1;whiteSpace=wrap;html=1;" vertex="1" parent="1">
          <mxGeometry x="320" y="720" width="200" height="60" as="geometry" />
        </mxCell>
        <mxCell id="w1eACj4yXZsooirm8AMX-26" value="Sign In" style="text;html=1;strokeColor=none;fillColor=none;align=center;verticalAlign=middle;whiteSpace=wrap;rounded=0;fontStyle=1;fontSize=15;rotation=0;" vertex="1" parent="1">
          <mxGeometry x="320" y="520" width="200" height="30" as="geometry" />
        </mxCell>
        <mxCell id="w1eACj4yXZsooirm8AMX-27" value="" style="endArrow=openThin;html=1;rounded=0;strokeWidth=3;endFill=0;" edge="1" parent="1">
          <mxGeometry width="50" height="50" relative="1" as="geometry">
            <mxPoint x="320" y="989" as="sourcePoint" />
            <mxPoint x="520" y="989" as="targetPoint" />
          </mxGeometry>
        </mxCell>
        <mxCell id="w1eACj4yXZsooirm8AMX-28" value="" style="endArrow=openThin;html=1;rounded=0;strokeWidth=3;endFill=0;" edge="1" parent="1">
          <mxGeometry width="50" height="50" relative="1" as="geometry">
            <mxPoint x="520" y="1109" as="sourcePoint" />
            <mxPoint x="320" y="1109" as="targetPoint" />
          </mxGeometry>
        </mxCell>
        <mxCell id="w1eACj4yXZsooirm8AMX-29" value="Name, Email, Sex, Level, Password&lt;br&gt;CSRF Token" style="rounded=1;whiteSpace=wrap;html=1;align=center;" vertex="1" parent="1">
          <mxGeometry x="320" y="919" width="200" height="60" as="geometry" />
        </mxCell>
        <mxCell id="w1eACj4yXZsooirm8AMX-30" value="Response(Token or error)" style="rounded=1;whiteSpace=wrap;html=1;" vertex="1" parent="1">
          <mxGeometry x="320" y="1039" width="200" height="60" as="geometry" />
        </mxCell>
        <mxCell id="w1eACj4yXZsooirm8AMX-31" value="Sign Up" style="text;html=1;strokeColor=none;fillColor=none;align=center;verticalAlign=middle;whiteSpace=wrap;rounded=0;fontStyle=1;fontSize=15;rotation=0;" vertex="1" parent="1">
          <mxGeometry x="320" y="839" width="200" height="30" as="geometry" />
        </mxCell>
        <mxCell id="w1eACj4yXZsooirm8AMX-37" value="" style="endArrow=openThin;html=1;rounded=0;strokeWidth=3;endFill=0;" edge="1" parent="1">
          <mxGeometry width="50" height="50" relative="1" as="geometry">
            <mxPoint x="320" y="1310" as="sourcePoint" />
            <mxPoint x="520" y="1310" as="targetPoint" />
          </mxGeometry>
        </mxCell>
        <mxCell id="w1eACj4yXZsooirm8AMX-38" value="" style="endArrow=openThin;html=1;rounded=0;strokeWidth=3;endFill=0;" edge="1" parent="1">
          <mxGeometry width="50" height="50" relative="1" as="geometry">
            <mxPoint x="520" y="1430" as="sourcePoint" />
            <mxPoint x="320" y="1430" as="targetPoint" />
          </mxGeometry>
        </mxCell>
        <mxCell id="w1eACj4yXZsooirm8AMX-39" value="Token, Param" style="rounded=1;whiteSpace=wrap;html=1;align=center;" vertex="1" parent="1">
          <mxGeometry x="320" y="1240" width="200" height="60" as="geometry" />
        </mxCell>
        <mxCell id="w1eACj4yXZsooirm8AMX-40" value="Response" style="rounded=1;whiteSpace=wrap;html=1;" vertex="1" parent="1">
          <mxGeometry x="320" y="1360" width="200" height="60" as="geometry" />
        </mxCell>
        <mxCell id="w1eACj4yXZsooirm8AMX-41" value="View {SomeParam}" style="text;html=1;strokeColor=none;fillColor=none;align=center;verticalAlign=middle;whiteSpace=wrap;rounded=0;fontStyle=1;fontSize=15;rotation=0;" vertex="1" parent="1">
          <mxGeometry x="320" y="1160" width="200" height="30" as="geometry" />
        </mxCell>
        <mxCell id="w1eACj4yXZsooirm8AMX-49" value="PUT" style="rounded=1;whiteSpace=wrap;html=1;fontSize=15;align=center;fillColor=#dae8fc;strokeColor=#6c8ebf;fontStyle=1" vertex="1" parent="1">
          <mxGeometry x="230" y="290" width="80" height="40" as="geometry" />
        </mxCell>
        <mxCell id="w1eACj4yXZsooirm8AMX-50" value="POST" style="rounded=1;whiteSpace=wrap;html=1;fontSize=15;align=center;fillColor=#dae8fc;strokeColor=#6c8ebf;fontStyle=1" vertex="1" parent="1">
          <mxGeometry x="230" y="610" width="80" height="40" as="geometry" />
        </mxCell>
        <mxCell id="w1eACj4yXZsooirm8AMX-51" value="POST" style="rounded=1;whiteSpace=wrap;html=1;fontSize=15;align=center;fillColor=#dae8fc;strokeColor=#6c8ebf;fontStyle=1" vertex="1" parent="1">
          <mxGeometry x="230" y="929" width="80" height="40" as="geometry" />
        </mxCell>
        <mxCell id="w1eACj4yXZsooirm8AMX-52" value="POST" style="rounded=1;whiteSpace=wrap;html=1;fontSize=15;align=center;fillColor=#dae8fc;strokeColor=#6c8ebf;fontStyle=1" vertex="1" parent="1">
          <mxGeometry x="230" y="1250" width="80" height="40" as="geometry" />
        </mxCell>
        <mxCell id="w1eACj4yXZsooirm8AMX-55" value="" style="endArrow=openThin;html=1;rounded=0;strokeWidth=3;endFill=0;" edge="1" parent="1">
          <mxGeometry width="50" height="50" relative="1" as="geometry">
            <mxPoint x="320" y="1640" as="sourcePoint" />
            <mxPoint x="520" y="1640" as="targetPoint" />
          </mxGeometry>
        </mxCell>
        <mxCell id="w1eACj4yXZsooirm8AMX-56" value="" style="endArrow=openThin;html=1;rounded=0;strokeWidth=3;endFill=0;" edge="1" parent="1">
          <mxGeometry width="50" height="50" relative="1" as="geometry">
            <mxPoint x="520" y="1760" as="sourcePoint" />
            <mxPoint x="320" y="1760" as="targetPoint" />
          </mxGeometry>
        </mxCell>
        <mxCell id="w1eACj4yXZsooirm8AMX-57" value="Token" style="rounded=1;whiteSpace=wrap;html=1;align=center;" vertex="1" parent="1">
          <mxGeometry x="320" y="1570" width="200" height="60" as="geometry" />
        </mxCell>
        <mxCell id="w1eACj4yXZsooirm8AMX-58" value="Response and Redirect" style="rounded=1;whiteSpace=wrap;html=1;" vertex="1" parent="1">
          <mxGeometry x="320" y="1690" width="200" height="60" as="geometry" />
        </mxCell>
        <mxCell id="w1eACj4yXZsooirm8AMX-59" value="Delete Account" style="text;html=1;strokeColor=none;fillColor=none;align=center;verticalAlign=middle;whiteSpace=wrap;rounded=0;fontStyle=1;fontSize=15;rotation=0;" vertex="1" parent="1">
          <mxGeometry x="320" y="1490" width="200" height="30" as="geometry" />
        </mxCell>
        <mxCell id="w1eACj4yXZsooirm8AMX-60" value="DELETE" style="rounded=1;whiteSpace=wrap;html=1;fontSize=15;align=center;fillColor=#dae8fc;strokeColor=#6c8ebf;fontStyle=1" vertex="1" parent="1">
          <mxGeometry x="230" y="1580" width="80" height="40" as="geometry" />
        </mxCell>
        <mxCell id="w1eACj4yXZsooirm8AMX-61" value="" style="endArrow=openThin;html=1;rounded=0;strokeWidth=3;endFill=0;" edge="1" parent="1">
          <mxGeometry width="50" height="50" relative="1" as="geometry">
            <mxPoint x="320" y="1970" as="sourcePoint" />
            <mxPoint x="520" y="1970" as="targetPoint" />
          </mxGeometry>
        </mxCell>
        <mxCell id="w1eACj4yXZsooirm8AMX-62" value="" style="endArrow=openThin;html=1;rounded=0;strokeWidth=3;endFill=0;" edge="1" parent="1">
          <mxGeometry width="50" height="50" relative="1" as="geometry">
            <mxPoint x="520" y="2090" as="sourcePoint" />
            <mxPoint x="320" y="2090" as="targetPoint" />
          </mxGeometry>
        </mxCell>
        <mxCell id="w1eACj4yXZsooirm8AMX-63" value="Token, UserName, Email" style="rounded=1;whiteSpace=wrap;html=1;align=center;" vertex="1" parent="1">
          <mxGeometry x="320" y="1900" width="200" height="60" as="geometry" />
        </mxCell>
        <mxCell id="w1eACj4yXZsooirm8AMX-64" value="Response or Error" style="rounded=1;whiteSpace=wrap;html=1;" vertex="1" parent="1">
          <mxGeometry x="320" y="2020" width="200" height="60" as="geometry" />
        </mxCell>
        <mxCell id="w1eACj4yXZsooirm8AMX-65" value="Delete Employee" style="text;html=1;strokeColor=none;fillColor=none;align=center;verticalAlign=middle;whiteSpace=wrap;rounded=0;fontStyle=1;fontSize=15;rotation=0;" vertex="1" parent="1">
          <mxGeometry x="320" y="1820" width="200" height="30" as="geometry" />
        </mxCell>
        <mxCell id="w1eACj4yXZsooirm8AMX-66" value="DELETE" style="rounded=1;whiteSpace=wrap;html=1;fontSize=15;align=center;fillColor=#dae8fc;strokeColor=#6c8ebf;fontStyle=1" vertex="1" parent="1">
          <mxGeometry x="230" y="1910" width="80" height="40" as="geometry" />
        </mxCell>
        <mxCell id="w1eACj4yXZsooirm8AMX-67" value="" style="endArrow=openThin;html=1;rounded=0;strokeWidth=3;endFill=0;" edge="1" parent="1">
          <mxGeometry width="50" height="50" relative="1" as="geometry">
            <mxPoint x="320" y="2300" as="sourcePoint" />
            <mxPoint x="520" y="2300" as="targetPoint" />
          </mxGeometry>
        </mxCell>
        <mxCell id="w1eACj4yXZsooirm8AMX-68" value="" style="endArrow=openThin;html=1;rounded=0;strokeWidth=3;endFill=0;" edge="1" parent="1">
          <mxGeometry width="50" height="50" relative="1" as="geometry">
            <mxPoint x="520" y="2420" as="sourcePoint" />
            <mxPoint x="320" y="2420" as="targetPoint" />
          </mxGeometry>
        </mxCell>
        <mxCell id="w1eACj4yXZsooirm8AMX-69" value="Token" style="rounded=1;whiteSpace=wrap;html=1;align=center;" vertex="1" parent="1">
          <mxGeometry x="320" y="2230" width="200" height="60" as="geometry" />
        </mxCell>
        <mxCell id="w1eACj4yXZsooirm8AMX-70" value="Response and Redirect" style="rounded=1;whiteSpace=wrap;html=1;" vertex="1" parent="1">
          <mxGeometry x="320" y="2350" width="200" height="60" as="geometry" />
        </mxCell>
        <mxCell id="w1eACj4yXZsooirm8AMX-71" value="Log out" style="text;html=1;strokeColor=none;fillColor=none;align=center;verticalAlign=middle;whiteSpace=wrap;rounded=0;fontStyle=1;fontSize=15;rotation=0;" vertex="1" parent="1">
          <mxGeometry x="320" y="2150" width="200" height="30" as="geometry" />
        </mxCell>
        <mxCell id="w1eACj4yXZsooirm8AMX-72" value="POST" style="rounded=1;whiteSpace=wrap;html=1;fontSize=15;align=center;fillColor=#dae8fc;strokeColor=#6c8ebf;fontStyle=1" vertex="1" parent="1">
          <mxGeometry x="230" y="2240" width="80" height="40" as="geometry" />
        </mxCell>
      </root>
    </mxGraphModel>
  </diagram>
</mxfile>
